<svg width="19" height="19" viewBox="0 0 19 19" fill="none" xmlns="http://www.w3.org/2000/svg">
<path d="M9.5 13.9141C7.07813 13.9141 5.08594 11.9219 5.08594 9.5C5.08594 7.07812 7.07813 5.08594 9.5 5.08594C11.9219 5.08594 13.9141 7.07812 13.9141 9.5C13.9141 11.9219 11.9219 13.9141 9.5 13.9141ZM9.5 6.02344C7.58594 6.02344 6.02344 7.58593 6.02344 9.5C6.02344 11.4141 7.58594 12.9766 9.5 12.9766C11.4141 12.9766 12.9766 11.4141 12.9766 9.5C12.9766 7.58593 11.4141 6.02344 9.5 6.02344Z" fill="#65B79F"/>
<path d="M10.8281 18.8359H8.17188L7.42969 16.5703C6.92188 16.4141 6.45313 16.2188 5.98438 15.9844L3.83594 17.0781L1.96094 15.2031L3.05469 13.0547C2.82031 12.5859 2.58594 12.1172 2.46875 11.6094L0.203125 10.8672V8.21095L2.46875 7.46875C2.625 6.96094 2.82031 6.49219 3.05469 6.02344L1.96094 3.87501L3.83594 2L5.98438 3.09376C6.45313 2.85938 6.92188 2.62501 7.42969 2.50782L8.17188 0.242188H10.8281L11.5703 2.50782C12.0781 2.66407 12.5469 2.85938 13.0156 3.09376L15.1641 2L17.0391 3.87501L15.9453 6.02344C16.1797 6.49219 16.4141 6.96094 16.5313 7.46875L18.7969 8.21095V10.8672L16.5313 11.6094C16.375 12.1172 16.1797 12.5859 15.9453 13.0547L17.0391 15.2031L15.1641 17.0781L13.0156 15.9844C12.5469 16.2188 12.0781 16.4531 11.5703 16.5703L10.8281 18.8359ZM8.83594 17.9375H10.1641L10.8672 15.8281L11.1016 15.75C11.6875 15.5938 12.2344 15.3594 12.7812 15.0469L13.0156 14.9297L15.0078 15.9453L15.9453 15.0078L14.9297 13.0156L15.0469 12.7813C15.3594 12.2734 15.5938 11.6875 15.75 11.1016L15.8281 10.8672L17.9375 10.1641V8.83594L15.8281 8.13282L15.75 7.89844C15.5938 7.3125 15.3594 6.72657 15.0469 6.21876L14.9297 5.98438L15.9453 3.99219L15.0078 3.05469L13.0156 4.07032L12.7812 3.95312C12.2734 3.64062 11.6875 3.40625 11.1016 3.25L10.8672 3.17188L10.1641 1.0625H8.83594L8.13281 3.17188L7.89844 3.25C7.3125 3.40625 6.76563 3.64062 6.21875 3.95312L5.98438 4.07032L3.99219 3.05469L3.05469 3.99219L4.07032 5.98438L3.95313 6.21876C3.64063 6.72657 3.40625 7.3125 3.25 7.89844L3.17188 8.13282L1.0625 8.83594V10.1641L3.17188 10.8672L3.25 11.1016C3.40625 11.6875 3.64063 12.2734 3.95313 12.7813L4.07032 13.0156L3.05469 15.0078L3.99219 15.9453L5.98438 14.9297L6.21875 15.0469C6.72657 15.3594 7.3125 15.5938 7.89844 15.75L8.13281 15.8281L8.83594 17.9375Z" fill="#65B79F"/>
</svg>
