<svg width="76" height="10" viewBox="0 0 76 10" fill="none" xmlns="http://www.w3.org/2000/svg">
<path d="M70.4636 0.347861L69.243 2.93348L66.5122 3.34944C66.0224 3.42365 65.8262 4.05443 66.1813 4.41572L68.157 6.42719L67.6897 9.26863C67.6056 9.78224 68.1234 10.167 68.557 9.92675L71 8.58512L73.443 9.92675C73.8766 10.165 74.3944 9.78224 74.3103 9.26863L73.843 6.42719L75.8187 4.41572C76.1738 4.05443 75.9776 3.42365 75.4878 3.34944L72.757 2.93348L71.5364 0.347861C71.3178 -0.11302 70.6841 -0.118878 70.4636 0.347861Z" fill="black" fill-opacity="0.2"/>
<path d="M4.46355 0.347861L3.24299 2.93348L0.512158 3.34944C0.0224388 3.42365 -0.173823 4.05443 0.181317 4.41572L2.15701 6.42719L1.68973 9.26863C1.60561 9.78224 2.12337 10.167 2.55701 9.92675L5 8.58512L7.44299 9.92675C7.87663 10.165 8.39439 9.78224 8.31028 9.26863L7.84299 6.42719L9.81868 4.41572C10.1738 4.05443 9.97756 3.42365 9.48784 3.34944L6.75701 2.93348L5.53645 0.347861C5.31776 -0.11302 4.68411 -0.118878 4.46355 0.347861Z" fill="#65B79F"/>
<path d="M53.4636 0.347861L52.243 2.93348L49.5122 3.34944C49.0224 3.42365 48.8262 4.05443 49.1813 4.41572L51.157 6.42719L50.6897 9.26863C50.6056 9.78224 51.1234 10.167 51.557 9.92675L54 8.58512L56.443 9.92675C56.8766 10.165 57.3944 9.78224 57.3103 9.26863L56.843 6.42719L58.8187 4.41572C59.1738 4.05443 58.9776 3.42365 58.4878 3.34944L55.757 2.93348L54.5364 0.347861C54.3178 -0.11302 53.6841 -0.118878 53.4636 0.347861Z" fill="#65B79F"/>
<path d="M36.4636 0.347861L35.243 2.93348L32.5122 3.34944C32.0224 3.42365 31.8262 4.05443 32.1813 4.41572L34.157 6.42719L33.6897 9.26863C33.6056 9.78224 34.1234 10.167 34.557 9.92675L37 8.58512L39.443 9.92675C39.8766 10.165 40.3944 9.78224 40.3103 9.26863L39.843 6.42719L41.8187 4.41572C42.1738 4.05443 41.9776 3.42365 41.4878 3.34944L38.757 2.93348L37.5364 0.347861C37.3178 -0.11302 36.6841 -0.118878 36.4636 0.347861Z" fill="#65B79F"/>
<path d="M19.4636 0.347861L18.243 2.93348L15.5122 3.34944C15.0224 3.42365 14.8262 4.05443 15.1813 4.41572L17.157 6.42719L16.6897 9.26863C16.6056 9.78224 17.1234 10.167 17.557 9.92675L20 8.58512L22.443 9.92675C22.8766 10.165 23.3944 9.78224 23.3103 9.26863L22.843 6.42719L24.8187 4.41572C25.1738 4.05443 24.9776 3.42365 24.4878 3.34944L21.757 2.93348L20.5364 0.347861C20.3178 -0.11302 19.6841 -0.118878 19.4636 0.347861Z" fill="#65B79F"/>
</svg>
